# AST/ASF file generated using VICON BodyLanguage
# -----------------------------------------------
:version 1.10
:name VICON
:units
  mass 1.0
  length 0.45
  angle deg
:documentation
   .ast/.asf automatically generated from VICON data using
   VICON BodyBuilder and BodyLanguage model FoxedUp or BRILLIANT.MOD
:root
   order TX TY TZ RX RY RZ
   axis XYZ
   position 0 0 0  
   orientation 0 0 0 
:bonedata
  begin
     id 1 
     name lhipjoint
     direction 0.678564 -0.644259 0.352817 
     length 2.99514 
     axis 0 0 0  XYZ
  end
  begin
     id 2 
     name lfemur
     direction 0.34202 -0.939693 0  
     length 7.29983  
     axis 0 0 20  XYZ
    dof rx ry rz
    limits (-160.0 20.0)
           (-70.0 70.0)
           (-60.0 70.0)
  end
  begin
     id 3 
     name ltibia
     direction 0.34202 -0.939693 0   
     length 8.59502   
     axis 0 0 20   XYZ
    dof rx
    limits (-10.0 170.0)
  end
  begin
     id 4 
     name lfoot
     direction 0.256607 -0.705022 0.661133   
     length 2.92136   
     axis -90 7.62852e-016 20   XYZ
    dof rx rz
    limits (-45.0 90.0)
           (-70.0 20.0)
  end
  begin
     id 5 
     name ltoes
     direction 1.53673e-011 -4.22167e-011 1   
     length 1.31421   
     axis -90 7.62852e-016 20   XYZ
    dof rx
    limits (-90.0 20.0)
  end
  begin
     id 6 
     name rhipjoint
     direction -0.664671 -0.655307 0.358867   
     length 2.94464  
     axis 0 0 0  XYZ 
  end
  begin
     id 7 
     name rfemur
     direction -0.34202 -0.939693 0   
     length 7.1902   
     axis 0 0 -20   XYZ
    dof rx ry rz
    limits (-160.0 20.0)
           (-70.0 70.0)
           (-70.0 60.0)
  end
  begin
     id 8 
     name rtibia
     direction -0.342306 -0.939589 0   
     length 7.92304   
     axis 0 0 -20   XYZ
    dof rx
    limits (-10.0 170.0)
 end
 begin
     id 9 
     name rfoot
     direction -0.135083 -0.371136 0.9187   
     length 2.14777  
     axis -90 -7.62852e-016 -20   XYZ
    dof rx rz
    limits (-45.0 90.0)
           (-20.0 70.0)
  end
  begin
     id 10 
     name rtoes
     direction -1.53535e-011 -4.21537e-011 1   
     length 1.05997   
     axis -90 -7.62852e-016 -20   XYZ
    dof rx
    limits (-90.0 20.0)
  end
  begin
     id 11 
     name lowerback
     direction -0.0195507 0.995133 0.0965771   
     length 2.09792   
     axis 0 0 0   XYZ
    dof rx ry rz
    limits (-20.0 45.0)
           (-30.0 30.0)
           (-30.0 30.0)
  end
  begin
     id 12 
     name upperback
     direction 0.00551419 0.999637 0.0263729   
     length 2.10514   
     axis 0 0 0   XYZ
    dof rx ry rz
    limits (-20.0 45.0)
           (-30.0 30.0)
           (-30.0 30.0)
  end
  begin
     id 13 
     name thorax
     direction 0.0138853 0.999728 -0.0187549   
     length 2.12411   
     axis 0 0 0   XYZ
    dof rx ry rz
    limits (-20.0 45.0)
           (-30.0 30.0)
           (-30.0 30.0)
  end
  begin
     id 14 
     name lowerneck
     direction 0.00575564 0.995441 0.0952053   
     length 2.98955   
     axis 0 0 0   XYZ
    dof rx ry rz
    limits (-20.0 45.0)
           (-30.0 30.0)
           (-30.0 30.0)
  end
  begin
     id 15 
     name upperneck
     direction 0.0362743 0.998452 -0.0421753   
     length 3.03688   
     axis 0 0 0   XYZ
    dof rx ry rz
    limits (-20.0 45.0)
           (-30.0 30.0)
           (-30.0 30.0)
  end
  begin
     id 16
     name head
     direction -0.0138164 0.799054 0.6011  
     length 1.47017  
     axis 0 0 0   XYZ
    dof rx ry rz
    limits (-20.0 45.0)
           (-30.0 30.0)
           (-30.0 30.0)
  end
  begin
     id 17 
     name lclavicle
     direction 0.925636 0.378361 -0.006363  
     length 3.33831  
     axis 0 0 0   XYZ
    dof ry rz
    limits (-20.0 10.0)
           (0.0 20.0)
  end
  begin
     id 18 
     name lhumerus
     direction 1 -4.48983e-011 -5.50319e-028   
     length 4.79344   
     axis -180 -30 -90   XYZ
    dof rx ry rz
    limits (-60.0 90.0)
           (-90.0 90.0)
           (-90.0 90.0)
  end
  begin
     id 19
     name lradius
     direction 1 -4.48905e-011 9.20478e-027   
     length 2.94221   
     axis -180 -30 -90   XYZ
    dof rx
    limits (-10.0 170.0)
  end
  begin
     id 20
     name lwrist
     direction 1 -4.4898e-011 2.08228e-026   
     length 1.4711   
     axis -1.38353e-014 90 90   XYZ
    dof ry
    limits (-180.0 0.0)
 end
  begin
     id 21 
     name lhand
     direction 1 -4.48957e-011 4.16456e-026   
     length 0.889984   
     axis -2.65735e-014 90 90   XYZ
    dof rx rz
    limits (-90.0 90.0)
           (-45.0 45.0)
  end
  begin
     id 22 
     name lfingers
     direction 1 -4.49044e-011 8.32913e-026   
     length 0.717528   
     axis -5.3147e-014 90 90   XYZ
    dof rx
    limits (0.0 90.0)
  end
  begin
     id 23
     name lthumb
     direction 0.707107 -6.35171e-011 0.707107   
     length 1.03023   
     axis -90 45 2.85299e-015   XYZ
    dof rx rz
    limits (-45.0 45.0)
           (-45.0 45.0)
  end
  begin
     id 24 
     name rclavicle
     direction -0.892514 0.445149 0.0725343   
     length 3.17271  
     axis 0 0 0   XYZ 
    dof ry rz
    limits (-10.0 20.0)
           (-20.0 0.0)
  end
  begin
     id 25 
     name rhumerus
     direction -1 -4.48952e-011 5.59695e-028  
     length 5.4863   
     axis -180 30 90   XYZ
    dof rx ry rz
    limits (-90.0 60.0)
           (-90.0 90.0)
           (-90.0 90.0)
  end
  begin
     id 26 
     name rradius
     direction -1 -4.48963e-011 1.14146e-026   
     length 3.17201   
     axis -180 30 90   XYZ
    dof rx
    limits (-10.0 170.0)
  end
  begin
     id 27 
     name rwrist
     direction -1 -4.49046e-011 2.08228e-026   
     length 1.58601   
     axis -1.38353e-014 -90 -90   XYZ
    dof ry
    limits (-180.0 0.0)
  end
  begin
     id 28
     name rhand
     direction -1 -4.48815e-011 4.16456e-026   
     length 0.874513   
     axis -2.65735e-014 -90 -90   XYZ
    dof rx rz
    limits (-90.0 90.0)
           (-45.0 45.0)
  end
  begin
     id 29
     name rfingers
     direction -1 -4.48918e-011 8.32913e-026   
     length 0.705055   
     axis -5.3147e-014 -90 -90   XYZ
    dof rx
    limits (0.0 90.0)
  end
  begin
     id 30
     name rthumb
     direction -0.707107 -6.34858e-011 0.707107   
     length 1.01232   
     axis -90 -45 -2.85299e-015   XYZ
    dof rx rz
    limits (-45.0 45.0)
           (-45.0 45.0)
  end
:hierarchy
  begin
    root lhipjoint rhipjoint lowerback
    lhipjoint lfemur
    lfemur ltibia
    ltibia lfoot
    lfoot ltoes
    rhipjoint rfemur
    rfemur rtibia
    rtibia rfoot
    rfoot rtoes
    lowerback upperback
    upperback thorax
    thorax lowerneck lclavicle rclavicle
    lowerneck upperneck
    upperneck head
    lclavicle lhumerus
    lhumerus lradius
    lradius lwrist
    lwrist lhand lthumb
    lhand lfingers
    rclavicle rhumerus
    rhumerus rradius
    rradius rwrist
    rwrist rhand rthumb
    rhand rfingers
  end

#!OML:ASF F:\VICON\USERDATA\INSTALL\rory3\rory3.ASF
:FULLY-SPECIFIED
:DEGREES
130
root 3.22375 18.5076 -0.730948 -9.76286 88.458 -23.1177
lowerback -12.347 -1.07394 -1.28035
upperback -5.34632 -1.09351 1.87328
thorax 1.38656 -0.411124 2.52625
lowerneck -17.04 -11.3778 1.9069
upperneck 3.96977 37.9243 2.36998
head 26.9559 33.9798 180.308
rclavicle -6.4605e-015 1.86858e-014
rhumerus -13.6109 44.3408 -64.7704
rradius 141.653
rwrist -65.1252
rhand 26.6989 -8.92077
rfingers 7.12502
rthumb 50.7161 -29.7592
lclavicle -6.4605e-015 1.86858e-014
lhumerus -11.1347 -45.3933 68.4932
lradius 136.313
lwrist 68.3053
lhand 26.6789 7.87717
lfingers 7.12502
lthumb 50.698 28.7256
rfemur -12.5482 17.5325 17.9114
rtibia 11.2824
rfoot -17.3092 -18.6399
rtoes -13.7644
lfemur -13.811 -4.0324 -21.9553
ltibia 16.477
lfoot -3.38008 4.27125
ltoes -10.0896
131
root 3.22114 18.5073 -0.731859 -10.3246 88.4523 -23.6887
lowerback -12.4083 -1.03212 -1.22194
upperback -5.27352 -1.04732 1.83085
thorax 1.49151 -0.392278 2.45425
lowerneck -17.1554 -11.438 1.96102
upperneck 3.84347 37.5094 2.30573
head 26.7803 33.593 180.259
rclavicle 5.25537e-015 4.37326e-015
rhumerus -13.7969 44.208 -64.8777
rradius 141.363
rwrist -65.7496
rhand 26.3583 -8.97846
rfingers 7.12502
rthumb 50.4052 -29.9858
lclavicle 5.25537e-015 4.37326e-015
lhumerus -10.8226 -45.3287 68.1854
lradius 136.265
lwrist 68.0076
lhand 26.6481 7.7358
lfingers 7.12502
lthumb 50.6698 28.5996
rfemur -12.5843 17.5472 17.9153
rtibia 11.299
rfoot -17.3418 -18.6518
rtoes -13.6537
lfemur -13.8439 -4.00956 -21.9422
ltibia 16.5027
lfoot -3.39559 4.28289
ltoes -10.0368
132
root 3.21939 18.5067 -0.732518 -9.04966 88.4379 -22.4066
lowerback -12.4353 -0.957477 -1.20362
upperback -5.19896 -0.953015 1.74502
thorax 1.57743 -0.349446 2.36661
lowerneck -17.2972 -11.5127 2.05152
upperneck 3.72121 37.0588 2.27392
head 26.5955 33.2246 180.155
rclavicle 1.38528e-014 -7.95139e-015
rhumerus -14.1807 43.9957 -65.0985
rradius 141.006
rwrist -66.1967
rhand 26.2364 -8.95992
rfingers 7.12502
rthumb 50.2938 -30.027
lclavicle 1.38528e-014 -7.95139e-015
lhumerus -10.3363 -45.2503 67.7401
lradius 136.16
lwrist 67.6315
lhand 26.7602 7.6596
lfingers 7.12502
lthumb 50.7721 28.4673
rfemur -12.5906 17.5798 17.8724
rtibia 11.2894
rfoot -17.3901 -18.6662
rtoes -13.7381
lfemur -13.8447 -4.00592 -21.9788
ltibia 16.5132
lfoot -3.37664 4.31245
ltoes -10.0101
133
root 3.21703 18.5062 -0.73355 -7.22124 88.4173 -20.5436
lowerback -12.383 -0.92062 -1.21714
upperback -5.1967 -0.902754 1.6932
thorax 1.54848 -0.324939 2.32742
lowerneck -17.3019 -11.5463 2.0701
upperneck 3.68685 36.8479 2.27627
head 26.4887 33.0584 180.067
rclavicle 2.83268e-015 -2.38542e-015
rhumerus -14.7138 43.9655 -65.38
rradius 140.564
rwrist -66.654
rhand 25.9898 -8.89521
rfingers 7.12502
rthumb 50.0683 -30.082
lclavicle 2.83268e-015 -2.38542e-015
lhumerus -10.0648 -45.0471 67.4256
lradius 136.081
lwrist 67.3962
lhand 26.7754 7.74862
lfingers 7.12502
lthumb 50.786 28.5487
rfemur -12.5395 17.6006 17.8225
rtibia 11.244
rfoot -17.3905 -18.637
rtoes -13.3936
lfemur -13.8167 -4.02859 -22.0314
ltibia 16.5261
lfoot -3.33729 4.30907
ltoes -10.0314
134
root 3.215 18.5067 -0.734417 -8.30117 88.3933 -21.585
lowerback -12.3519 -0.933701 -1.18759
upperback -5.23853 -0.921963 1.7258
thorax 1.48903 -0.332777 2.3425
lowerneck -17.1589 -11.5384 2.01258
upperneck 3.74826 36.946 2.29736
head 26.5064 33.1304 180.065
rclavicle -5.06901e-015 -1.39149e-014
rhumerus -15.2703 44.1683 -65.6821
rradius 140.046
rwrist -67.1515
rhand 25.4932 -8.85
rfingers 7.12502
rthumb 49.6136 -30.2733
lclavicle -5.06901e-015 -1.39149e-014
lhumerus -10.074 -44.7017 67.3565
lradius 136.016
lwrist 67.106
lhand 26.7707 7.77752
lfingers 7.12502
lthumb 50.7817 28.5799
rfemur -12.4594 17.6584 17.8594
rtibia 11.1653
rfoot -17.3797 -18.6726
rtoes -13.3764
lfemur -13.8033 -4.05828 -21.9962
ltibia 16.5747
lfoot -3.25307 4.28925
ltoes -10.0173
135
root 3.21301 18.5057 -0.73467 -11.5396 88.3538 -24.7966
lowerback -12.3518 -0.97005 -1.12625
upperback -5.26982 -0.976757 1.82491
thorax 1.4596 -0.358339 2.40393
lowerneck -17.0439 -11.5002 1.9183
upperneck 3.80271 37.138 2.28614
head 26.5624 33.2303 180.117
rclavicle -2.98177e-015 -7.55382e-015
rhumerus -15.7407 44.4341 -65.9049
rradius 139.513
rwrist -67.6782
rhand 24.7711 -8.85896
rfingers 7.12502
rthumb 48.9509 -30.6156
lclavicle -2.98177e-015 -7.55382e-015
lhumerus -10.0657 -44.2259 67.302
lradius 135.955
lwrist 66.6211
lhand 26.7597 7.76804
lfingers 7.12502
lthumb 50.7717 28.576
rfemur -12.3938 17.6086 17.9862
rtibia 11.0731
rfoot -17.2231 -18.6354
rtoes -13.8255
lfemur -13.8193 -4.00146 -21.8933
ltibia 16.6532
lfoot -3.26868 4.28864
ltoes -10.0196
